<svg width="1000" height="646" viewBox="0 0 1000 646" fill="none" xmlns="http://www.w3.org/2000/svg">
<g clip-path="url(#clip0_1_7)">
<path d="M534.395 275.284L-1 645.292L408.758 278.067C419.734 268.23 420.793 251.408 411.137 240.272L285.716 95.6339C280.663 89.8063 284.802 80.7377 292.516 80.7377H376.818C386.961 80.7377 396.633 85.0164 403.456 92.5215L538.337 240.891C547.698 251.187 545.842 267.372 534.395 275.284Z" fill="white"/>
<path d="M464.605 370.364L1000 0.356323L590.242 367.581C579.266 377.418 578.207 394.24 587.863 405.376L713.284 550.014C718.337 555.842 714.198 564.91 706.484 564.91H622.182C612.039 564.91 602.367 560.632 595.544 553.127L460.663 404.757C451.302 394.461 453.158 378.276 464.605 370.364Z" fill="white"/>
</g>
<defs>
<clipPath id="clip0_1_7">
<rect width="1000" height="646" fill="white"/>
</clipPath>
</defs>
</svg>
